<svg width="165" height="29" viewBox="0 0 165 29" fill="none" xmlns="http://www.w3.org/2000/svg">
<path d="M0.380005 10.9V1.40001H22.078V10.9H16.15V28H6.30801V10.9H0.380005Z" fill="url(#paint0_linear)"/>
<path d="M33.8227 28.76C31.188 28.76 28.756 28.1267 26.5267 26.86C24.2973 25.5933 22.524 23.8833 21.2067 21.73C19.9147 19.5767 19.2687 17.2333 19.2687 14.7C19.2687 12.1667 19.9147 9.82335 21.2067 7.67001C22.524 5.51668 24.2973 3.80668 26.5267 2.54002C28.756 1.27335 31.188 0.640015 33.8227 0.640015C36.4573 0.640015 38.8767 1.27335 41.0807 2.54002C43.31 3.80668 45.0707 5.51668 46.3627 7.67001C47.68 9.82335 48.3387 12.1667 48.3387 14.7C48.3387 17.2333 47.68 19.5767 46.3627 21.73C45.0707 23.8833 43.31 25.5933 41.0807 26.86C38.8767 28.1267 36.4573 28.76 33.8227 28.76ZM30.0227 14.7C30.0227 15.7387 30.39 16.6253 31.1247 17.36C31.8593 18.0947 32.746 18.462 33.7847 18.462C34.8233 18.462 35.71 18.0947 36.4447 17.36C37.2047 16.6253 37.5847 15.7387 37.5847 14.7C37.5847 13.6613 37.2047 12.7747 36.4447 12.04C35.71 11.28 34.8233 10.9 33.7847 10.9C32.746 10.9 31.8593 11.28 31.1247 12.04C30.39 12.7747 30.0227 13.6613 30.0227 14.7Z" fill="url(#paint1_linear)"/>
<path d="M63.6957 28.76C61.0611 28.76 58.6291 28.1267 56.3997 26.86C54.1704 25.5933 52.3971 23.8833 51.0797 21.73C49.7877 19.5767 49.1417 17.2333 49.1417 14.7C49.1417 12.1667 49.7877 9.82335 51.0797 7.67001C52.3971 5.51668 54.1704 3.80668 56.3997 2.54002C58.6291 1.27335 61.0611 0.640015 63.6957 0.640015C66.3304 0.640015 68.7497 1.27335 70.9537 2.54002C73.1831 3.80668 74.9437 5.51668 76.2357 7.67001C77.5531 9.82335 78.2117 12.1667 78.2117 14.7C78.2117 17.2333 77.5531 19.5767 76.2357 21.73C74.9437 23.8833 73.1831 25.5933 70.9537 26.86C68.7497 28.1267 66.3304 28.76 63.6957 28.76ZM59.8957 14.7C59.8957 15.7387 60.2631 16.6253 60.9977 17.36C61.7324 18.0947 62.6191 18.462 63.6577 18.462C64.6964 18.462 65.5831 18.0947 66.3177 17.36C67.0777 16.6253 67.4577 15.7387 67.4577 14.7C67.4577 13.6613 67.0777 12.7747 66.3177 12.04C65.5831 11.28 64.6964 10.9 63.6577 10.9C62.6191 10.9 61.7324 11.28 60.9977 12.04C60.2631 12.7747 59.8957 13.6613 59.8957 14.7Z" fill="url(#paint2_linear)"/>
<path d="M79.3116 1.40001H91.9276C94.6636 1.40001 96.9943 2.03335 98.9196 3.30001C100.87 4.54135 102.34 6.17535 103.328 8.20201C104.316 10.2287 104.81 12.3947 104.81 14.7C104.81 17.0053 104.316 19.1713 103.328 21.198C102.34 23.2247 100.87 24.8713 98.9196 26.138C96.9943 27.3793 94.6636 28 91.9276 28H79.3116V1.40001ZM92.1176 17.702C92.9283 17.702 93.549 17.4107 93.9796 16.828C94.4356 16.22 94.6637 15.498 94.6637 14.662C94.6637 13.826 94.4356 13.104 93.9796 12.496C93.549 11.888 92.9283 11.584 92.1176 11.584H89.1536V17.702H92.1176Z" fill="url(#paint3_linear)"/>
<path d="M120.139 28.76C117.504 28.76 115.072 28.1267 112.843 26.86C110.614 25.5933 108.84 23.8833 107.523 21.73C106.231 19.5767 105.585 17.2333 105.585 14.7C105.585 12.1667 106.231 9.82335 107.523 7.67001C108.84 5.51668 110.614 3.80668 112.843 2.54002C115.072 1.27335 117.504 0.640015 120.139 0.640015C122.774 0.640015 125.193 1.27335 127.397 2.54002C129.626 3.80668 131.387 5.51668 132.679 7.67001C133.996 9.82335 134.655 12.1667 134.655 14.7C134.655 17.2333 133.996 19.5767 132.679 21.73C131.387 23.8833 129.626 25.5933 127.397 26.86C125.193 28.1267 122.774 28.76 120.139 28.76ZM116.339 14.7C116.339 15.7387 116.706 16.6253 117.441 17.36C118.176 18.0947 119.062 18.462 120.101 18.462C121.14 18.462 122.026 18.0947 122.761 17.36C123.521 16.6253 123.901 15.7387 123.901 14.7C123.901 13.6613 123.521 12.7747 122.761 12.04C122.026 11.28 121.14 10.9 120.101 10.9C119.062 10.9 118.176 11.28 117.441 12.04C116.706 12.7747 116.339 13.6613 116.339 14.7Z" fill="url(#paint4_linear)"/>
<path d="M150.012 28.76C147.377 28.76 144.945 28.1267 142.716 26.86C140.487 25.5933 138.713 23.8833 137.396 21.73C136.104 19.5767 135.458 17.2333 135.458 14.7C135.458 12.1667 136.104 9.82335 137.396 7.67001C138.713 5.51668 140.487 3.80668 142.716 2.54002C144.945 1.27335 147.377 0.640015 150.012 0.640015C152.647 0.640015 155.066 1.27335 157.27 2.54002C159.499 3.80668 161.26 5.51668 162.552 7.67001C163.869 9.82335 164.528 12.1667 164.528 14.7C164.528 17.2333 163.869 19.5767 162.552 21.73C161.26 23.8833 159.499 25.5933 157.27 26.86C155.066 28.1267 152.647 28.76 150.012 28.76ZM146.212 14.7C146.212 15.7387 146.579 16.6253 147.314 17.36C148.049 18.0947 148.935 18.462 149.974 18.462C151.013 18.462 151.899 18.0947 152.634 17.36C153.394 16.6253 153.774 15.7387 153.774 14.7C153.774 13.6613 153.394 12.7747 152.634 12.04C151.899 11.28 151.013 10.9 149.974 10.9C148.935 10.9 148.049 11.28 147.314 12.04C146.579 12.7747 146.212 13.6613 146.212 14.7Z" fill="url(#paint5_linear)"/>
<defs>
<linearGradient id="paint0_linear" x1="-2.83711e-09" y1="15" x2="165" y2="15" gradientUnits="userSpaceOnUse">
<stop stop-color="#D4FC79"/>
<stop offset="1" stop-color="#96E6A1"/>
</linearGradient>
<linearGradient id="paint1_linear" x1="-2.83711e-09" y1="15" x2="165" y2="15" gradientUnits="userSpaceOnUse">
<stop stop-color="#D4FC79"/>
<stop offset="1" stop-color="#96E6A1"/>
</linearGradient>
<linearGradient id="paint2_linear" x1="-2.83711e-09" y1="15" x2="165" y2="15" gradientUnits="userSpaceOnUse">
<stop stop-color="#D4FC79"/>
<stop offset="1" stop-color="#96E6A1"/>
</linearGradient>
<linearGradient id="paint3_linear" x1="-2.83711e-09" y1="15" x2="165" y2="15" gradientUnits="userSpaceOnUse">
<stop stop-color="#D4FC79"/>
<stop offset="1" stop-color="#96E6A1"/>
</linearGradient>
<linearGradient id="paint4_linear" x1="-2.83711e-09" y1="15" x2="165" y2="15" gradientUnits="userSpaceOnUse">
<stop stop-color="#D4FC79"/>
<stop offset="1" stop-color="#96E6A1"/>
</linearGradient>
<linearGradient id="paint5_linear" x1="-2.83711e-09" y1="15" x2="165" y2="15" gradientUnits="userSpaceOnUse">
<stop stop-color="#D4FC79"/>
<stop offset="1" stop-color="#96E6A1"/>
</linearGradient>
</defs>
</svg>
